<mxfile host="app.diagrams.net" agent="Mozilla/5.0 (Windows NT 10.0; Win64; x64) AppleWebKit/537.36 (KHTML, like Gecko) Chrome/130.0.0.0 Safari/537.36" version="24.8.4">
  <diagram name="第 1 页" id="ZYVLbxUrJZKJWl978FsE">
    <mxGraphModel dx="1434" dy="756" grid="1" gridSize="10" guides="1" tooltips="1" connect="1" arrows="1" fold="1" page="1" pageScale="1" pageWidth="827" pageHeight="1169" math="0" shadow="0">
      <root>
        <mxCell id="0" />
        <mxCell id="1" parent="0" />
        <mxCell id="-Rwlo3EefeUTKjsSFe2x-7" style="edgeStyle=orthogonalEdgeStyle;rounded=0;orthogonalLoop=1;jettySize=auto;html=1;exitX=1;exitY=0.25;exitDx=0;exitDy=0;entryX=0;entryY=0;entryDx=0;entryDy=0;" edge="1" parent="1" source="-Rwlo3EefeUTKjsSFe2x-1" target="-Rwlo3EefeUTKjsSFe2x-3">
          <mxGeometry relative="1" as="geometry" />
        </mxCell>
        <mxCell id="-Rwlo3EefeUTKjsSFe2x-1" value="" style="rounded=1;whiteSpace=wrap;html=1;" vertex="1" parent="1">
          <mxGeometry x="110" y="110" width="180" height="130" as="geometry" />
        </mxCell>
        <mxCell id="-Rwlo3EefeUTKjsSFe2x-2" value="Browser" style="shape=internalStorage;whiteSpace=wrap;html=1;backgroundOutline=1;" vertex="1" parent="1">
          <mxGeometry x="155" y="145" width="90" height="60" as="geometry" />
        </mxCell>
        <mxCell id="-Rwlo3EefeUTKjsSFe2x-9" style="edgeStyle=orthogonalEdgeStyle;rounded=0;orthogonalLoop=1;jettySize=auto;html=1;exitX=0;exitY=1;exitDx=0;exitDy=0;entryX=1;entryY=0.75;entryDx=0;entryDy=0;" edge="1" parent="1">
          <mxGeometry relative="1" as="geometry">
            <mxPoint x="431.3232964096371" y="205.0036925132539" as="sourcePoint" />
            <mxPoint x="290" y="210.13" as="targetPoint" />
            <Array as="points">
              <mxPoint x="361" y="205" />
              <mxPoint x="361" y="210" />
            </Array>
          </mxGeometry>
        </mxCell>
        <mxCell id="-Rwlo3EefeUTKjsSFe2x-3" value="DNS" style="ellipse;whiteSpace=wrap;html=1;" vertex="1" parent="1">
          <mxGeometry x="414" y="130" width="120" height="85" as="geometry" />
        </mxCell>
      </root>
    </mxGraphModel>
  </diagram>
</mxfile>
